<svg width="184" height="80" viewBox="0 0 184 80" fill="none" xmlns="http://www.w3.org/2000/svg">
<g clip-path="url(#clip0_976_2879)">
<path d="M68.5619 75.8717C68.2336 76.2545 67.8256 76.561 67.3665 76.7697C66.9074 76.9784 66.4082 77.0842 65.904 77.0798C64.9374 77.0798 64.2126 76.5966 64.2126 75.63C64.2126 73.9386 65.6623 73.2138 68.0786 73.2138H68.5618L68.5619 75.8717ZM72.4279 75.3884V70.3142C72.4279 66.6898 70.4949 65.24 66.8704 65.24C64.7732 65.2018 62.7263 65.8841 61.0714 67.173L62.7628 69.5893C63.7635 68.7228 65.0668 68.2884 66.3872 68.3811C68.0786 68.3811 68.5619 69.106 68.5619 70.3141V71.039H68.0786C64.4542 71.039 60.5881 72.2472 60.5881 76.1133C60.5965 76.6604 60.7186 77.1998 60.9465 77.6973C61.1745 78.1947 61.5035 78.6394 61.9125 79.0029C62.3215 79.3664 62.8016 79.641 63.3223 79.8091C63.8431 79.9771 64.3931 80.0351 64.9375 79.9793C65.6902 79.9944 66.4354 79.8264 67.1089 79.4896C67.7823 79.1529 68.3639 78.6576 68.8035 78.0463C68.8035 78.5295 68.8035 79.2544 69.0451 79.4961H72.9111C72.4302 78.1837 72.2647 76.7766 72.4279 75.3884ZM54.789 77.0798C52.3727 77.0798 51.1645 75.1468 51.1645 72.4889C51.1645 69.831 52.3727 68.1395 54.5473 68.1395C55.5541 68.1742 56.5422 68.4212 57.4469 68.8644L58.655 66.2065C57.3743 65.3435 55.848 64.9195 54.3057 64.9984C53.3023 64.9212 52.2942 65.0621 51.3504 65.4112C50.4066 65.7604 49.5495 66.3096 48.838 67.0212C48.1264 67.7327 47.5772 68.5898 47.2281 69.5336C46.8789 70.4774 46.738 71.4855 46.8152 72.4889C46.7362 73.4609 46.8695 74.4384 47.2058 75.3537C47.5422 76.269 48.0735 77.1003 48.7631 77.7898C49.4526 78.4794 50.2839 79.0108 51.1992 79.3471C52.1145 79.6835 53.0921 79.8168 54.064 79.7378C55.6852 79.8469 57.2976 79.4226 58.655 78.5296L57.4469 75.8717C57.1398 76.2788 56.7357 76.6026 56.2715 76.8137C55.8073 77.0247 55.2976 77.1162 54.789 77.0798ZM40.0496 65.24C39.1764 65.2697 38.3186 65.4779 37.529 65.852C36.7394 66.226 36.0348 66.7578 35.4587 67.4147V65.7233H31.5927V79.7378H35.4587V70.0726C35.7887 69.5956 36.2195 69.197 36.7205 68.9047C37.2215 68.6125 37.7806 68.4337 38.3582 68.3812C39.808 68.3812 40.2912 69.1061 40.2912 70.5558V79.4962H44.1573V69.5893C44.3989 67.1731 43.1908 65.24 40.0496 65.24ZM24.3437 75.8717C24.0154 76.2545 23.6074 76.561 23.1483 76.7697C22.6892 76.9784 22.1901 77.0842 21.6858 77.0798C20.7193 77.0798 19.9944 76.5966 19.9944 75.63C19.9944 73.9386 21.4441 73.2138 23.8604 73.2138H24.3436L24.3437 75.8717ZM28.2097 70.3142C28.2097 66.6898 26.2767 65.24 22.6522 65.24C20.555 65.2019 18.5081 65.8841 16.8532 67.173L18.5446 69.5893C19.5453 68.7229 20.8486 68.2884 22.1691 68.3812C23.8605 68.3812 24.3437 69.1061 24.3437 70.3142V71.0392H23.8604C20.236 71.0392 16.3699 72.2473 16.3699 76.1134C16.3783 76.6606 16.5003 77.2 16.7283 77.6974C16.9563 78.1949 17.2852 78.6395 17.6942 79.003C18.1032 79.3666 18.5833 79.6411 19.1041 79.8092C19.6249 79.9773 20.1749 80.0353 20.7192 79.9794C21.472 79.9945 22.2172 79.8265 22.8907 79.4898C23.5641 79.1531 24.1457 78.6577 24.5853 78.0464C24.5853 78.5297 24.5853 79.2546 24.8269 79.4962H28.6929C28.3522 78.1541 28.1897 76.773 28.2097 75.3885L28.2097 70.3142ZM6.46302 76.5966H4.28845V71.2807H6.70474C9.12103 71.2807 10.0875 72.2473 10.0875 73.9387C10.0875 75.8717 8.87931 76.5966 6.46302 76.5966ZM4.28845 63.5486H6.22146C8.15447 63.5486 9.36265 64.2735 9.36265 65.9649C9.36265 67.6563 8.39615 68.3812 6.22146 68.3812H4.28845V63.5486ZM10.0875 69.5893C11.0819 69.3958 11.9724 68.8486 12.5944 68.0489C13.2163 67.2493 13.5275 66.2514 13.4703 65.24C13.4703 61.6156 10.3291 60.4074 6.9463 60.4074H0.422363V79.4961H6.70474C11.0541 79.4961 14.1953 78.0463 14.1953 74.1803C14.1793 73.0484 13.7547 71.9603 12.9999 71.1167C12.245 70.2731 11.2107 69.7306 10.0875 69.5893Z" fill="white"/>
<path d="M145.883 20.5385H137.426V8.94034H146.125C149.991 8.94034 151.199 10.3901 151.199 14.0146C151.199 17.8806 149.749 20.5385 145.883 20.5385ZM162.072 14.0146C162.072 4.59103 156.998 3.95299e-05 146.608 3.95299e-05H127.036V45.668H137.426V28.9956H145.158L153.615 45.6679H165.697L154.582 27.0626C156.869 25.7402 158.766 23.8371 160.082 21.5459C161.397 19.2546 162.084 16.6565 162.072 14.0146ZM62.7628 0H44.1574V45.6679H54.789V8.94034H63.0044C66.8705 8.94034 68.3203 10.3901 68.3203 14.7394C68.3203 19.572 64.9375 22.4715 59.1384 22.4715H56.9636L58.655 30.6869H60.5881C72.1863 30.6869 78.9519 24.1629 78.9519 15.2226C79.4352 5.31587 75.3275 0 62.7628 0ZM172.221 27.5457C170.288 29.4788 170.288 35.5195 172.221 37.4526C174.154 39.3856 179.953 39.3856 181.886 37.4526C183.819 35.5195 183.819 29.4788 181.886 27.5457C180.195 25.6127 174.154 25.6127 172.221 27.5457ZM182.128 18.8471C184.061 16.9141 184.061 10.8733 182.128 8.94028C180.195 7.00724 174.396 7.00726 172.463 8.94028C170.529 10.8733 170.53 16.9141 172.463 18.8471C174.154 20.7801 180.195 20.7801 182.128 18.8471ZM19.9944 36.4861H10.8124V26.096H20.4776C24.1021 26.096 25.7934 27.5458 25.7934 30.9286C25.7934 35.0363 23.6188 36.4861 19.9944 36.4861ZM10.8124 8.94034H19.9944C23.6188 8.94034 24.5853 9.90685 24.5853 13.5313C24.5853 16.6725 22.8939 18.3639 19.9944 18.3639H10.8124V8.94034ZM29.1763 21.5051C32.5591 20.0553 34.9753 15.9476 34.9753 11.5982C34.9753 4.83261 31.1093 1.31766e-05 21.4441 1.31766e-05H0.422363V45.6679H21.9274C31.3509 45.6679 36.9084 40.8354 36.9084 32.3783C36.9084 26.5793 34.2504 22.7133 29.1763 21.5051ZM96.3493 26.5793H113.988V17.8806H96.3493V9.18192H117.371V0H85.9593V45.6679H118.338V36.2444H96.3492L96.3493 26.5793Z" fill="white"/>
</g>
<defs>
<clipPath id="clip0_976_2879">
<rect width="183.155" height="80" fill="white" transform="translate(0.422363)"/>
</clipPath>
</defs>
</svg>
