<svg width="1318" height="994" viewBox="0 0 1318 994" fill="none" xmlns="http://www.w3.org/2000/svg">
<path d="M865.508 600.587H1284.73V421.476H865.508V600.587ZM1306.22 622.063H844.015V399.993H1306.22V622.063Z" fill="#102E41"/>
<path d="M935.571 450.971H959.73V559.135H935.571V450.971Z" fill="#102E41"/>
<path d="M1100.79 504.445C1100.79 494.793 1097.69 486.573 1091.5 479.762C1085.31 472.953 1077.69 469.551 1068.66 469.551C1059.63 469.551 1052.02 472.953 1045.81 479.762C1039.63 486.573 1036.52 494.793 1036.52 504.445C1036.52 514.087 1039.63 522.295 1045.81 529.047C1052.02 535.806 1059.63 539.188 1068.66 539.188C1077.69 539.188 1085.31 535.806 1091.5 529.047C1097.69 522.295 1100.79 514.087 1100.79 504.445ZM1109 544.21C1098.06 554.891 1084.58 560.231 1068.58 560.231C1052.58 560.231 1039.11 554.891 1028.17 544.21C1017.22 533.537 1011.75 520.255 1011.75 504.366C1011.75 488.482 1017.22 475.192 1028.17 464.519C1039.11 453.848 1052.58 448.508 1068.58 448.508C1084.58 448.508 1098.06 453.848 1109 464.519C1119.94 475.192 1125.41 488.482 1125.41 504.366C1125.41 520.255 1119.94 533.537 1109 544.21Z" fill="#102E41"/>
<path d="M1171.94 566.885H1165.54V544.063H1171.94C1180.57 544.063 1187.61 537.028 1187.61 528.395V473.807H1168.26V450.982H1228.97V473.807H1210.46V528.395C1210.46 549.62 1193.17 566.885 1171.94 566.885Z" fill="#102E41"/>
<path d="M96.4966 6.21582H151.825V296.898H96.4966V6.21582Z" fill="#102E41"/>
<path d="M386.243 49.1738H441.572V296.898H386.243L268.151 141.67V296.898H212.822V49.1738H264.602L386.243 208.655V49.1738Z" fill="#102E41"/>
<path d="M560.548 98.6109C555.226 102.985 552.573 108.772 552.573 115.979C552.573 123.193 555.818 128.922 562.323 133.166C568.821 137.425 583.834 142.441 607.367 148.228C630.884 154.022 649.152 162.699 662.161 174.28C675.157 185.854 681.662 202.753 681.662 224.956C681.662 247.167 673.334 265.182 656.667 279.006C640.001 292.82 618.062 299.731 590.874 299.731C551.62 299.731 516.268 285.204 484.84 256.146L517.812 215.746C544.53 239.131 569.239 250.829 591.941 250.829C602.102 250.829 610.08 248.644 615.876 244.27C621.661 239.895 624.568 233.993 624.568 226.549C624.568 219.112 621.494 213.209 615.344 208.835C609.199 204.461 597.019 200.036 578.808 195.539C549.969 188.693 528.861 179.771 515.512 168.781C502.155 157.798 495.468 140.546 495.468 117.045C495.468 93.5303 503.914 75.3988 520.826 62.6358C537.731 49.8875 558.832 43.5098 584.13 43.5098C600.682 43.5098 617.232 46.3419 633.784 52.0134C650.333 57.6777 664.757 65.7202 677.054 76.1122L649.035 116.512C627.517 100.204 605.29 92.053 582.357 92.053C573.148 92.053 565.87 94.251 560.548 98.6109Z" fill="#102E41"/>
<path d="M728.832 49.1738H784.16V296.898H728.832V49.1738Z" fill="#102E41"/>
<path d="M993.924 228.862C1007.51 216.099 1014.32 197.557 1014.32 173.22C1014.32 148.891 1007.51 130.161 993.924 117.052C980.321 103.937 959.459 97.3784 931.334 97.3784H900.473V248.002H935.581C960.872 248.002 980.321 241.617 993.924 228.862ZM1034.53 81.6033C1058.17 103.23 1069.99 133.296 1069.99 171.8C1069.99 210.319 1058.47 240.796 1035.42 263.236C1012.36 285.678 977.193 296.905 929.904 296.905H845.146V49.1738H932.746C976.946 49.1738 1010.89 59.9908 1034.53 81.6033Z" fill="#102E41"/>
<path d="M1296.62 49.1738V98.4305H1173.21V149.474H1284.22V196.605H1173.21V247.995H1300.52V296.898H1117.88V49.1738H1296.62Z" fill="#102E41"/>
<path d="M229.807 593.132C204.746 617.592 173.894 629.821 137.244 629.821C100.594 629.821 69.7346 617.592 44.674 593.132C19.6131 568.672 7.0791 538.261 7.0791 501.883C7.0791 465.505 19.6131 435.079 44.674 410.619C69.7346 386.174 100.594 373.945 137.244 373.945C173.894 373.945 204.746 386.174 229.807 410.619C254.861 435.079 267.402 465.505 267.402 501.883C267.402 538.261 254.861 568.672 229.807 593.132Z" fill="#FF412E"/>
<path d="M379.828 565.859C389.036 577.325 401.455 583.038 417.062 583.038C432.667 583.038 445.021 577.325 454.123 565.859C463.217 554.401 467.776 538.74 467.776 518.893V382.091H523.104V520.667C523.104 556.59 513.164 584.171 493.312 603.412C473.45 622.681 448.035 632.31 417.062 632.31C386.079 632.31 360.607 622.616 340.638 603.246C320.654 583.875 310.667 556.346 310.667 520.667V382.091H365.996V518.893C365.996 538.74 370.604 554.401 379.828 565.859Z" fill="#102E41"/>
<path d="M685.534 429.933V629.814H630.206V429.933H559.979V382.089H755.749V429.933H685.534Z" fill="#102E41"/>
<path d="M355.798 788.734L324.594 860.669H386.651L355.798 788.734ZM430.635 962.743L407.58 909.226H303.665L280.625 962.743H221.747L328.848 715.019H382.404L489.505 962.743H430.635Z" fill="#102E41"/>
<path d="M669.877 834.617C676.49 827.179 679.799 816.312 679.799 802.014C679.799 787.725 675.487 777.564 666.861 771.53C658.221 765.514 644.808 762.502 626.607 762.502H595.047V845.787H632.282C650.721 845.787 663.255 842.062 669.877 834.617ZM710.479 737.155C727.859 751.929 736.548 774.609 736.548 805.199C736.548 835.8 727.62 858.182 709.765 872.359C691.915 886.541 664.67 893.623 628.019 893.623H595.047V962.729H539.711V715.004H627.321C665.384 715.004 693.099 722.397 710.479 737.155Z" fill="#102E41"/>
<path d="M888.553 788.734L857.346 860.669H919.404L888.553 788.734ZM963.388 962.743L940.333 909.226H836.42L813.377 962.743H754.5L861.604 715.019H915.157L1022.26 962.743H963.388Z" fill="#102E41"/>
<path d="M1245.9 715.012H1301.23V962.736H1245.9L1127.81 807.513V962.736H1072.48V715.012H1124.26L1245.9 874.499V715.012Z" fill="#102E41"/>
<path d="M66.7329 709.775V765.75H114.193V900.72C114.193 921.907 96.943 939.138 75.7476 939.138H60.0693V993.995H75.7476C127.838 993.995 170.214 951.65 170.214 899.605V765.75H215.605V709.775H66.7329Z" fill="#102E41"/>
</svg>
