<svg width="235" height="41" viewBox="0 0 235 41" fill="none" xmlns="http://www.w3.org/2000/svg">
<path d="M22.9027 29.5677C22.9027 35.7451 18.3726 40.4502 11.3144 40.4502C7.19458 40.4502 3.95781 39.3933 1.42797 37.1578C0.84393 36.6276 -0.803426 34.8024 0.784237 32.8021C1.89906 31.393 3.95781 31.2736 5.13583 32.3925C7.01844 34.1557 9.72501 34.5683 11.3144 34.5683C14.8444 34.5683 16.9037 32.5095 16.9037 29.5677C16.9037 21.6282 0.314319 21.9214 0.314319 10.4508C0.31432 4.86381 4.25567 0.450195 11.6059 0.450195C15.0164 0.450195 18.0765 1.15713 20.6058 3.21646C21.2553 3.74607 22.5469 5.51164 21.1956 7.45101C20.254 8.80519 18.4329 9.09779 17.077 8.15735C15.374 6.9811 12.9038 6.33444 11.3144 6.33444C7.78448 6.33444 6.31502 8.04032 6.31502 10.4508C6.31502 17.2158 22.9027 16.922 22.9027 29.5677Z" fill="white"/>
<path d="M34.9144 24.5699V37.215C34.9144 38.8641 33.6176 40.1569 31.9726 40.1569C30.3252 40.1569 29.0278 38.8641 29.0278 37.215V3.98177C29.0278 2.33326 30.3252 1.04053 31.9726 1.04053H43.1465C49.6154 1.04053 54.9127 6.33488 54.9127 12.8055C54.9127 19.2761 49.6154 24.5699 43.1465 24.5699H34.9144ZM34.9144 6.92184V18.6868H43.0324C46.2651 18.6868 48.9131 16.0405 48.9131 12.8055C48.9131 9.56873 46.2651 6.92184 43.0324 6.92184H34.9144Z" fill="white"/>
<path d="M137.068 1.04053C148.126 1.04053 157.066 9.39377 157.066 20.4518C157.066 31.5104 148.126 39.8637 137.068 39.8637H98.4183C96.7709 39.8637 95.4741 38.568 95.4741 36.9218V3.98177C95.4741 2.33326 96.7709 1.04053 98.4183 1.04053L137.068 1.04053ZM101.361 6.92184V33.9812H137.068C145.3 33.9812 151.067 28.1566 151.067 20.4518C151.067 12.7458 145.3 6.92184 137.068 6.92184H101.361Z" fill="white"/>
<path d="M169.717 37.2142C169.717 38.8633 168.426 40.156 166.777 40.156C165.127 40.156 163.836 38.8633 163.836 37.2142V3.68596C163.836 2.04037 165.127 0.74707 166.777 0.74707C168.426 0.74707 169.717 2.04037 169.717 3.68596V37.2142Z" fill="white"/>
<path d="M217.183 6.92184V17.5106H227.772C229.42 17.5106 230.714 18.8039 230.714 20.4518C230.714 22.0986 229.42 23.3931 227.772 23.3931H217.183V33.9812H231.301C232.95 33.9812 234.242 35.2757 234.242 36.9218C234.242 38.568 232.95 39.8637 231.301 39.8637H214.244C212.595 39.8637 211.302 38.568 211.302 36.9218V3.98177C211.302 2.33326 212.595 1.04053 214.244 1.04053H231.301C232.95 1.04053 234.242 2.33326 234.242 3.98177C234.242 5.62913 232.95 6.92184 231.301 6.92184H217.183Z" fill="white"/>
<path d="M204.119 35.2979L196.044 23.6991C200.347 21.9464 203.404 17.7189 203.404 12.8055C203.404 6.33489 198.107 1.04053 191.636 1.04053H180.464C178.815 1.04053 177.52 2.33326 177.52 3.98177V37.215C177.52 38.8641 178.815 40.1569 180.464 40.1569C182.108 40.1569 183.405 38.8641 183.405 37.215V24.5676H189.237L199.129 38.7729C199.718 39.622 200.666 40.0767 201.628 40.0767C202.225 40.0767 202.832 39.9005 203.362 39.5307C204.74 38.5704 205.079 36.6766 204.119 35.2979ZM183.405 6.92184H191.523C194.756 6.92184 197.404 9.56873 197.404 12.8055C197.404 16.0382 194.756 18.6868 191.523 18.6868H183.405V6.92184Z" fill="white"/>
<path d="M68.6648 23.391C67.0186 23.391 65.7212 22.0994 65.7212 20.4521C65.7212 18.8036 67.0186 17.5103 68.6648 17.5103H84.3565C86.0015 17.5103 87.296 18.8036 87.296 20.4521C87.296 22.0994 86.0015 23.391 84.3565 23.391H68.6648Z" fill="white"/>
<path d="M62.925 6.92184C61.2789 6.92184 59.9814 5.62913 59.9814 3.98002C59.9814 2.33092 61.2789 1.04053 62.925 1.04053H84.357C86.002 1.04053 87.2965 2.33092 87.2965 3.98002C87.2965 5.62913 86.002 6.92184 84.357 6.92184H62.925Z" fill="white"/>
<path d="M62.925 39.8631C61.2789 39.8631 59.9814 38.5698 59.9814 36.9213C59.9814 35.2722 61.2789 33.9824 62.925 33.9824H84.357C86.002 33.9824 87.2965 35.2722 87.2965 36.9213C87.2965 38.5698 86.002 39.8631 84.357 39.8631H62.925Z" fill="white"/>
</svg>
